<svg xmlns="http://www.w3.org/2000/svg" width="1526" height="264" viewBox="0 0 1526 264">
<g fill="#000" fill-rule="evenodd">
  <path d="M 1191 89 L 1176 106 L 1171 115 L 1171 123 L 1209 133 L 1216 119 L 1232 109 L 1250 109 L 1260 113 L 1269 123 L 1272 144 L 1215 146 L 1194 152 L 1179 162 L 1164 189 L 1164 211 L 1173 231 L 1189 245 L 1215 253 L 1250 249 L 1262 242 L 1273 230 L 1278 230 L 1283 239 L 1294 247 L 1336 249 L 1337 215 L 1324 213 L 1315 204 L 1315 126 L 1303 97 L 1283 82 L 1255 74 L 1218 76 Z M 1209 189 L 1218 179 L 1220 179 L 1222 177 L 1270 177 L 1272 179 L 1272 188 L 1270 190 L 1270 196 L 1266 204 L 1262 208 L 1262 209 L 1260 210 L 1256 214 L 1254 214 L 1252 216 L 1247 216 L 1245 218 L 1225 218 L 1219 215 L 1211 207 L 1211 206 L 1209 204 Z"/>
  <path d="M 541 86 L 520 76 L 491 74 L 473 80 L 454 97 L 450 97 L 448 78 L 406 79 L 407 249 L 449 248 L 451 141 L 460 123 L 480 111 L 495 111 L 507 116 L 519 133 L 522 154 L 521 248 L 566 248 L 565 127 L 556 103 Z"/>
  <path d="M 234 91 L 222 104 L 217 114 L 218 123 L 255 133 L 262 119 L 272 111 L 299 109 L 310 115 L 317 124 L 319 144 L 259 146 L 239 152 L 224 162 L 210 187 L 210 210 L 221 233 L 243 248 L 262 253 L 298 249 L 321 231 L 326 231 L 336 244 L 343 247 L 382 249 L 383 213 L 370 212 L 363 204 L 363 125 L 352 99 L 335 84 L 303 74 L 264 76 L 247 82 Z M 257 186 L 262 181 L 269 177 L 281 177 L 282 176 L 290 176 L 291 177 L 318 177 L 320 179 L 320 184 L 318 186 L 318 194 L 316 197 L 316 200 L 314 202 L 313 205 L 303 214 L 301 214 L 299 216 L 295 216 L 293 218 L 272 218 L 263 213 L 255 204 L 255 190 Z"/>
  <path d="M 623 26 L 622 76 L 583 78 L 582 112 L 622 115 L 624 224 L 637 241 L 647 246 L 662 249 L 708 249 L 709 213 L 675 212 L 667 205 L 666 115 L 711 113 L 712 79 L 668 78 L 667 28 Z"/>
  <path d="M 1351 10 L 1350 248 L 1390 249 L 1394 231 L 1398 231 L 1414 246 L 1433 253 L 1454 253 L 1475 246 L 1497 226 L 1511 199 L 1515 156 L 1511 129 L 1505 113 L 1481 85 L 1454 74 L 1423 76 L 1407 85 L 1399 94 L 1395 94 L 1394 11 Z M 1423 111 L 1441 111 L 1443 113 L 1447 113 L 1449 115 L 1451 115 L 1463 128 L 1463 130 L 1466 134 L 1466 138 L 1468 140 L 1468 147 L 1470 149 L 1470 177 L 1468 180 L 1468 186 L 1466 188 L 1466 193 L 1459 204 L 1453 210 L 1446 214 L 1439 216 L 1425 216 L 1412 210 L 1402 200 L 1402 198 L 1399 195 L 1399 192 L 1397 190 L 1397 186 L 1395 184 L 1395 176 L 1393 173 L 1393 151 L 1395 149 L 1395 141 L 1397 139 L 1397 135 L 1403 125 L 1410 118 L 1418 113 L 1421 113 Z"/>
  <path d="M 1151 209 L 1053 206 L 1081 172 L 1083 140 L 1073 119 L 1053 102 L 1052 10 L 1008 11 L 1008 102 L 982 127 L 884 127 L 876 105 L 859 86 L 825 74 L 792 74 L 767 82 L 736 114 L 736 123 L 774 133 L 786 115 L 811 108 L 827 113 L 838 128 L 836 146 L 769 148 L 735 172 L 729 193 L 732 220 L 751 243 L 770 251 L 819 249 L 841 230 L 863 247 L 903 249 L 904 213 L 883 206 L 885 177 L 981 177 L 1008 203 L 1009 249 L 1150 249 Z M 1054 144 L 1052 164 L 1047 171 L 1036 178 L 1019 176 L 1010 169 L 1005 160 L 867 160 L 823 203 L 817 214 L 810 220 L 804 222 L 788 220 L 778 211 L 775 204 L 775 191 L 784 179 L 794 175 L 824 176 L 829 174 L 859 145 L 1004 145 L 1016 130 L 1024 127 L 1042 129 Z"/>
  <path d="M 10 10 L 77 248 L 148 249 L 216 10 L 168 12 L 115 205 L 108 200 L 56 10 Z"/>
</g></svg>