<?xml version="1.0" encoding="UTF-8"?>
<svg xmlns="http://www.w3.org/2000/svg" width="624" height="424" viewBox="0 0 624 424" fill="currentColor">
  <title>VL Monogram</title>
  <g fill-rule="evenodd">
    <path d="M 9 19 L 5 49 L 23 69 L 131 62 L 219 244 L 260 240 L 349 61 L 477 61 L 324 378 L 341 405 L 559 405 L 591 418 L 615 403 L 617 368 L 592 350 L 559 363 L 384 362 L 537 52 L 527 19 L 321 18 L 240 171 L 159 18 L 65 17 L 30 5 Z"/>
<path d="M 396 94 L 369 91 L 351 106 L 347 117 L 349 138 L 236 358 L 230 357 L 109 106 L 59 104 L 204 405 L 268 402 L 388 156 L 399 151 L 410 137 L 412 116 Z"/>
  </g>
</svg>
